<svg width="136" height="136" viewBox="0 0 136 136" fill="none" xmlns="http://www.w3.org/2000/svg">
<g filter="url(#filter0_di_798_524)">
<path d="M101.995 85.9522C101.711 104.556 86.2608 119.35 67.4853 118.994C48.7099 118.637 33.7195 103.264 34.004 84.6596C34.4541 55.2455 69.0468 17 69.0468 17C69.0468 17 102.446 56.538 101.995 85.9522Z" fill="#2EA3F2"/>
</g>
<path d="M62.4672 40.1277C62.417 39.7809 61.9718 39.5722 61.6606 39.6576C59.7786 40.1816 58.5592 42.7372 57.5169 44.2566C56.1254 46.295 54.8085 48.3636 53.5562 50.4874C52.3131 52.6056 51.0856 54.7395 49.9495 56.9156C48.985 58.7655 47.0021 61.3671 47.2319 63.5003C47.3403 64.5225 48.3981 65.4599 49.4398 64.8033C51.3466 63.6014 52.1143 60.7693 53.1264 58.8226C54.2571 56.6373 55.3803 54.4502 56.5598 52.2888C57.7393 50.1274 58.9215 47.9706 60.1112 45.8156C61.0362 44.1386 62.7465 42.1101 62.4672 40.1277Z" fill="white"/>
<path d="M46.1293 67.7176C45.0741 67.4107 44.1945 68.0457 43.8164 68.9772C43.6026 69.5029 43.3888 70.0285 43.1758 70.5505C42.8102 71.2131 42.5174 71.9133 42.3141 72.6632C42.0631 73.6032 42.6025 74.6245 43.559 74.9028C44.604 75.2033 45.4155 74.5746 45.8093 73.6742C46.3408 72.4584 46.8732 71.239 47.4057 70.0195C47.805 69.0972 47.0093 67.9729 46.1293 67.7176Z" fill="white"/>
<defs>
<filter id="filter0_di_798_524" x="27" y="9" width="84" height="122" filterUnits="userSpaceOnUse" color-interpolation-filters="sRGB">
<feFlood flood-opacity="0" result="BackgroundImageFix"/>
<feColorMatrix in="SourceAlpha" type="matrix" values="0 0 0 0 0 0 0 0 0 0 0 0 0 0 0 0 0 0 127 0" result="hardAlpha"/>
<feOffset dx="1" dy="4"/>
<feGaussianBlur stdDeviation="4"/>
<feComposite in2="hardAlpha" operator="out"/>
<feColorMatrix type="matrix" values="0 0 0 0 0 0 0 0 0 0 0 0 0 0 0 0 0 0 0.12 0"/>
<feBlend mode="normal" in2="BackgroundImageFix" result="effect1_dropShadow_798_524"/>
<feBlend mode="normal" in="SourceGraphic" in2="effect1_dropShadow_798_524" result="shape"/>
<feColorMatrix in="SourceAlpha" type="matrix" values="0 0 0 0 0 0 0 0 0 0 0 0 0 0 0 0 0 0 127 0" result="hardAlpha"/>
<feOffset dx="-1" dy="-8"/>
<feGaussianBlur stdDeviation="10"/>
<feComposite in2="hardAlpha" operator="arithmetic" k2="-1" k3="1"/>
<feColorMatrix type="matrix" values="0 0 0 0 0.321302 0 0 0 0 0.43575 0 0 0 0 0.829167 0 0 0 1 0"/>
<feBlend mode="normal" in2="shape" result="effect2_innerShadow_798_524"/>
</filter>
</defs>
</svg>
