<svg width="827" height="337" viewBox="0 0 827 337" fill="none" xmlns="http://www.w3.org/2000/svg">
<g filter="url(#filter0_f_798_423)">
<ellipse cx="149" cy="148.5" rx="149" ry="148.5" transform="matrix(4.37114e-08 -1 -1 -4.37114e-08 521 417)" fill="url(#paint0_linear_798_423)"/>
</g>
<g filter="url(#filter1_f_798_423)">
<ellipse cx="149" cy="148.5" rx="149" ry="148.5" transform="matrix(4.37114e-08 1 1 -4.37114e-08 490 119)" fill="url(#paint1_linear_798_423)"/>
</g>
<g filter="url(#filter2_f_798_423)">
<circle cx="148" cy="148" r="148" transform="matrix(4.37114e-08 -1 -1 -4.37114e-08 496 197)" fill="url(#paint2_linear_798_423)"/>
</g>
<g filter="url(#filter3_f_798_423)">
<ellipse cx="149" cy="148" rx="149" ry="148" transform="matrix(4.37114e-08 -1 -1 -4.37114e-08 687 166)" fill="url(#paint3_linear_798_423)"/>
</g>
<defs>
<filter id="filter0_f_798_423" x="24" y="-81" width="697" height="698" filterUnits="userSpaceOnUse" color-interpolation-filters="sRGB">
<feFlood flood-opacity="0" result="BackgroundImageFix"/>
<feBlend mode="normal" in="SourceGraphic" in2="BackgroundImageFix" result="shape"/>
<feGaussianBlur stdDeviation="100" result="effect1_foregroundBlur_798_423"/>
</filter>
<filter id="filter1_f_798_423" x="290" y="-81" width="697" height="698" filterUnits="userSpaceOnUse" color-interpolation-filters="sRGB">
<feFlood flood-opacity="0" result="BackgroundImageFix"/>
<feBlend mode="normal" in="SourceGraphic" in2="BackgroundImageFix" result="shape"/>
<feGaussianBlur stdDeviation="100" result="effect1_foregroundBlur_798_423"/>
</filter>
<filter id="filter2_f_798_423" x="0" y="-299" width="696" height="696" filterUnits="userSpaceOnUse" color-interpolation-filters="sRGB">
<feFlood flood-opacity="0" result="BackgroundImageFix"/>
<feBlend mode="normal" in="SourceGraphic" in2="BackgroundImageFix" result="shape"/>
<feGaussianBlur stdDeviation="100" result="effect1_foregroundBlur_798_423"/>
</filter>
<filter id="filter3_f_798_423" x="191" y="-332" width="696" height="698" filterUnits="userSpaceOnUse" color-interpolation-filters="sRGB">
<feFlood flood-opacity="0" result="BackgroundImageFix"/>
<feBlend mode="normal" in="SourceGraphic" in2="BackgroundImageFix" result="shape"/>
<feGaussianBlur stdDeviation="100" result="effect1_foregroundBlur_798_423"/>
</filter>
<linearGradient id="paint0_linear_798_423" x1="10.6212" y1="3.99444e-06" x2="150.097" y2="296.484" gradientUnits="userSpaceOnUse">
<stop stop-color="#89A2FB"/>
<stop offset="1" stop-color="#5ED3D0"/>
</linearGradient>
<linearGradient id="paint1_linear_798_423" x1="10.6212" y1="4.27104e-06" x2="150.097" y2="296.484" gradientUnits="userSpaceOnUse">
<stop stop-color="#A188F5"/>
<stop offset="1" stop-color="#FFCB5B"/>
</linearGradient>
<linearGradient id="paint2_linear_798_423" x1="10.5499" y1="3.98099e-06" x2="149.854" y2="295.125" gradientUnits="userSpaceOnUse">
<stop stop-color="#6B48B1"/>
<stop offset="1" stop-color="#8898F9"/>
</linearGradient>
<linearGradient id="paint3_linear_798_423" x1="10.6212" y1="3.98099e-06" x2="149.329" y2="295.846" gradientUnits="userSpaceOnUse">
<stop stop-color="#A99979"/>
<stop offset="1" stop-color="#57D773"/>
</linearGradient>
</defs>
</svg>
