<svg width="200" height="76" viewBox="0 0 200 76" fill="none" xmlns="http://www.w3.org/2000/svg">
<rect y="0.280273" width="200" height="75" rx="16" fill="#312D43"/>
<path d="M47.6654 37.8554C47.6255 33.4241 51.2954 31.2682 51.4632 31.1679C49.3848 28.1389 46.1633 27.7251 45.0313 27.6921C42.3257 27.4075 39.7012 29.3104 38.3229 29.3104C36.9171 29.3104 34.7947 27.7196 32.5072 27.7663C29.5636 27.8117 26.8098 29.5152 25.2995 32.1606C22.1826 37.5543 24.5072 45.4807 27.4935 49.8405C28.9873 51.9771 30.7328 54.3599 33.0175 54.276C35.2528 54.1853 36.0877 52.853 38.7851 52.853C41.4577 52.853 42.2417 54.276 44.5719 54.2224C46.9708 54.1853 48.4811 52.0775 49.9226 49.923C51.6489 47.4771 52.3422 45.0655 52.3697 44.9417C52.3146 44.9225 47.7122 43.1653 47.6654 37.8554ZM43.2638 24.824C44.466 23.3213 45.2885 21.2768 45.0602 19.202C43.3201 19.279 41.1441 20.4051 39.891 21.8749C38.7823 23.17 37.792 25.2929 38.0478 27.2893C40.0024 27.435 42.0093 26.3034 43.2638 24.824Z" fill="white"/>
<path d="M81.0272 53.2905H78.0375L76.3999 48.1458H70.7075L69.1475 53.2905H66.2368L71.8778 35.7757H75.3612L81.0272 53.2905ZM75.9062 45.9874L74.4252 41.4139C74.2685 40.9467 73.9736 39.8464 73.5418 38.1144H73.4892C73.3154 38.8593 73.0376 39.9596 72.6572 41.4139L71.2012 45.9874H75.9062ZM95.5056 46.8205C95.5056 48.9684 94.9224 50.6661 93.7547 51.9125C92.7095 53.022 91.4101 53.5761 89.8607 53.5761C88.1874 53.5761 86.9842 52.9799 86.2536 51.7848V58.4114H83.4469V44.8121C83.4469 43.4631 83.4113 42.0799 83.3429 40.6611H85.8112L85.9679 42.6629H86.0205C86.9565 41.1546 88.377 40.4005 90.2832 40.4005C91.7735 40.4005 93.0175 40.9888 94.0128 42.1667C95.0067 43.3473 95.5056 44.8976 95.5056 46.8205ZM92.6463 46.9231C92.6463 45.6939 92.3698 44.6805 91.8143 43.8816C91.2074 43.0511 90.3925 42.6353 89.3709 42.6353C88.6785 42.6353 88.0492 42.8669 87.4871 43.3236C86.9236 43.7842 86.555 44.3857 86.3826 45.1306C86.3056 45.4092 86.2618 45.6959 86.2522 45.9847V48.0918C86.2522 49.0092 86.534 49.7844 87.0974 50.4187C87.6609 51.0505 88.3928 51.3676 89.2933 51.3676C90.3504 51.3676 91.1732 50.9583 91.7616 50.1463C92.3514 49.3316 92.6463 48.2577 92.6463 46.9231ZM110.035 46.8205C110.035 48.9684 109.452 50.6661 108.284 51.9125C107.238 53.022 105.94 53.5761 104.389 53.5761C102.716 53.5761 101.513 52.9799 100.782 51.7848V58.4114H97.9753V44.8121C97.9753 43.4631 97.9398 42.0799 97.8713 40.6611H100.34L100.496 42.6629H100.549C101.484 41.1546 102.904 40.4005 104.812 40.4005C106.301 40.4005 107.545 40.9888 108.543 42.1667C109.535 43.3473 110.035 44.8976 110.035 46.8205ZM107.175 46.9231C107.175 45.6939 106.897 44.6805 106.341 43.8816C105.734 43.0511 104.922 42.6353 103.901 42.6353C103.208 42.6353 102.579 42.8669 102.014 43.3236C101.451 43.7842 101.083 44.3857 100.911 45.1306C100.825 45.478 100.779 45.761 100.779 45.9847V48.0918C100.779 49.0092 101.062 49.7844 101.623 50.4187C102.187 51.0491 102.919 51.3676 103.822 51.3676C104.88 51.3676 105.703 50.9583 106.29 50.1463C106.88 49.3316 107.175 48.2577 107.175 46.9231ZM126.28 48.3774C126.28 49.8686 125.759 51.0807 124.723 52.0165C123.583 53.0378 121.991 53.5497 119.951 53.5497C118.066 53.5497 116.554 53.1865 115.414 52.4587L116.063 50.12C117.294 50.8491 118.646 51.2123 120.118 51.2123C121.177 51.2123 121.999 50.9728 122.586 50.4977C123.175 50.0213 123.472 49.3843 123.472 48.5893C123.472 47.8773 123.226 47.2811 122.743 46.7955C122.257 46.3111 121.454 45.8597 120.326 45.4451C117.259 44.3014 115.724 42.6287 115.724 40.4281C115.724 38.9909 116.266 37.8143 117.348 36.8944C118.43 35.9757 119.865 35.5164 121.65 35.5164C123.245 35.5164 124.573 35.7941 125.627 36.3482L124.923 38.6356C123.931 38.0986 122.81 37.8301 121.557 37.8301C120.567 37.8301 119.79 38.0736 119.235 38.5579C118.767 38.9909 118.53 39.5187 118.53 40.1452C118.53 40.8361 118.8 41.41 119.337 41.8601C119.803 42.2746 120.654 42.7261 121.883 43.2104C123.392 43.8184 124.501 44.5265 125.21 45.3399C125.925 46.1532 126.28 47.1679 126.28 48.3774ZM135.584 42.7669H132.49V48.8986C132.49 50.4582 133.035 51.236 134.128 51.236C134.629 51.236 135.045 51.1939 135.375 51.1057L135.452 53.2365C134.899 53.4431 134.171 53.5471 133.27 53.5471C132.161 53.5471 131.295 53.2089 130.67 52.5324C130.047 51.8559 129.734 50.7227 129.734 49.1276V42.7616H127.89V40.6558H129.734V38.3434L132.49 37.5116V40.6558H135.584V42.7669ZM149.515 46.8718C149.515 48.8131 148.959 50.4069 147.851 51.6532C146.691 52.9364 145.148 53.5761 143.225 53.5761C141.368 53.5761 139.893 52.9614 138.792 51.7335C137.692 50.5029 137.141 48.9526 137.141 47.0824C137.141 45.1253 137.71 43.5223 138.843 42.276C139.98 41.0283 141.509 40.4044 143.433 40.4044C145.286 40.4044 146.775 41.0204 147.902 42.2496C148.979 43.442 149.515 44.9819 149.515 46.8718ZM146.605 46.9363C146.605 45.7794 146.355 44.7871 145.854 43.9566C145.265 42.9538 144.423 42.4523 143.331 42.4523C142.207 42.4523 141.345 42.9538 140.758 43.9566C140.255 44.7871 140.005 45.7965 140.005 46.9889C140.005 48.1471 140.255 49.1421 140.758 49.9699C141.364 50.9728 142.211 51.4742 143.308 51.4742C144.38 51.4742 145.222 50.9623 145.83 49.9449C146.346 49.0947 146.605 48.0958 146.605 46.9363ZM158.642 43.1288C158.35 43.0761 158.054 43.0501 157.757 43.0511C156.77 43.0511 156.006 43.4223 155.469 44.1698C155.003 44.8279 154.769 45.6597 154.769 46.6639V53.2905H151.962V44.6384C151.964 43.3126 151.937 41.9869 151.88 40.6624H154.325L154.428 43.0788H154.505C154.803 42.2483 155.269 41.5784 155.909 41.077C156.494 40.6388 157.206 40.4015 157.937 40.4005C158.197 40.4005 158.431 40.4189 158.639 40.4518L158.642 43.1288ZM171.194 46.3783C171.201 46.8048 171.167 47.231 171.091 47.6509H162.671C162.703 48.8986 163.111 49.8541 163.893 50.5122C164.603 51.0991 165.52 51.394 166.647 51.394C167.894 51.394 169.031 51.1965 170.054 50.7978L170.494 52.7443C169.298 53.2655 167.887 53.5247 166.259 53.5247C164.3 53.5247 162.762 52.9483 161.643 51.798C160.527 50.6464 159.967 49.0987 159.967 47.16C159.967 45.2569 160.487 43.671 161.529 42.4062C162.619 41.0559 164.092 40.3808 165.945 40.3808C167.766 40.3808 169.144 41.0559 170.08 42.4062C170.821 43.4762 171.194 44.8029 171.194 46.3783ZM168.518 45.6505C168.537 44.8174 168.353 44.1001 167.973 43.4934C167.487 42.7116 166.739 42.322 165.737 42.322C164.82 42.322 164.072 42.7024 163.503 43.4657C163.036 44.0724 162.758 44.8016 162.673 45.6478L168.518 45.6505Z" fill="white"/>
<path d="M68.4801 29.6703C67.6645 29.6703 66.9589 29.6305 66.3716 29.5631V20.716C67.193 20.5891 68.0231 20.5266 68.8542 20.529C72.2171 20.529 73.7659 22.1831 73.7659 24.8796C73.7659 27.99 71.9365 29.6703 68.4801 29.6703ZM68.9725 21.6634C68.5186 21.6634 68.1321 21.6909 67.8116 21.7569V28.4823C67.9849 28.5098 68.3178 28.5222 68.7854 28.5222C70.9889 28.5222 72.2433 27.2681 72.2433 24.9195C72.2433 22.8253 71.1085 21.6634 68.9725 21.6634ZM78.5922 29.7377C76.6969 29.7377 75.4686 28.3228 75.4686 26.4018C75.4686 24.3997 76.723 22.9724 78.6995 22.9724C80.5673 22.9724 81.8231 24.32 81.8231 26.2959C81.8231 28.3228 80.5288 29.7377 78.5922 29.7377ZM78.6472 24.0257C77.606 24.0257 76.939 24.9993 76.939 26.3606C76.939 27.6958 77.6198 28.6693 78.6335 28.6693C79.6472 28.6693 80.328 27.6284 80.328 26.3331C80.328 25.013 79.6609 24.0257 78.6472 24.0257ZM92.6311 23.1058L90.6024 29.5906H89.2806L88.4402 26.7745C88.2313 26.0856 88.0573 25.3867 87.919 24.6803H87.8914C87.7855 25.387 87.5847 26.0952 87.3715 26.7745L86.4775 29.5906H85.142L83.2329 23.1058H84.7142L85.4487 26.1887C85.622 26.923 85.7678 27.616 85.8888 28.2705H85.9163C86.0222 27.7246 86.1955 27.0426 86.45 26.2024L87.3715 23.1072H88.5461L89.4278 26.1364C89.641 26.8707 89.8143 27.5913 89.9491 28.2719H89.9876C90.0811 27.605 90.2283 26.8968 90.4277 26.1364L91.2158 23.1072L92.6311 23.1058ZM100.1 29.5906H98.6582V25.8669C98.6582 24.7201 98.2181 24.1454 97.3502 24.1454C96.4961 24.1454 95.9088 24.8796 95.9088 25.7336V29.5906H94.4673V24.9594C94.4673 24.386 94.4536 23.7713 94.4137 23.1044H95.6818L95.7492 24.1055H95.7891C96.177 23.4125 96.9637 22.9724 97.8454 22.9724C99.207 22.9724 100.101 24.0134 100.101 25.7074L100.1 29.5906ZM104.075 29.5906H102.632V20.1302H104.075V29.5906ZM109.33 29.7377C107.436 29.7377 106.207 28.3228 106.207 26.4018C106.207 24.3997 107.461 22.9724 109.436 22.9724C111.305 22.9724 112.56 24.32 112.56 26.2959C112.561 28.3228 111.265 29.7377 109.33 29.7377ZM109.384 24.0257C108.343 24.0257 107.676 24.9993 107.676 26.3606C107.676 27.6958 108.358 28.6693 109.369 28.6693C110.384 28.6693 111.063 27.6284 111.063 26.3331C111.065 25.013 110.399 24.0257 109.384 24.0257ZM118.243 29.5906L118.138 28.8439H118.1C117.66 29.4448 117.017 29.7377 116.203 29.7377C115.041 29.7377 114.216 28.9237 114.216 27.8291C114.216 26.2286 115.603 25.4008 118.006 25.4008V25.2812C118.006 24.4272 117.554 23.9996 116.66 23.9996C116.02 23.9996 115.459 24.1605 114.965 24.4809L114.672 23.5335C115.272 23.1594 116.02 22.9724 116.899 22.9724C118.594 22.9724 119.449 23.8662 119.449 25.6552V28.0436C119.449 28.6982 119.478 29.2056 119.543 29.592L118.243 29.5906ZM118.045 26.3606C116.444 26.3606 115.641 26.7483 115.641 27.6683C115.641 28.3489 116.055 28.6817 116.63 28.6817C117.363 28.6817 118.045 28.122 118.045 27.3616V26.3606ZM126.449 29.5906L126.381 28.5497H126.341C125.927 29.3362 125.231 29.7377 124.259 29.7377C122.695 29.7377 121.537 28.3627 121.537 26.428C121.537 24.3997 122.738 22.9711 124.377 22.9711C125.245 22.9711 125.86 23.2639 126.207 23.8525H126.235V20.1302H127.678V27.8429C127.678 28.4699 127.693 29.0571 127.732 29.5906H126.449ZM126.235 25.7748C126.235 24.8673 125.634 24.0931 124.717 24.0931C123.648 24.0931 122.995 25.0405 122.995 26.3743C122.995 27.682 123.673 28.5772 124.688 28.5772C125.595 28.5772 126.235 27.7893 126.235 26.8556V25.7748ZM136.826 29.7377C134.932 29.7377 133.704 28.3228 133.704 26.4018C133.704 24.3997 134.958 22.9724 136.934 22.9724C138.803 22.9724 140.057 24.32 140.057 26.2959C140.058 28.3228 138.764 29.7377 136.826 29.7377ZM136.88 24.0257C135.84 24.0257 135.173 24.9993 135.173 26.3606C135.173 27.6958 135.854 28.6693 136.866 28.6693C137.881 28.6693 138.561 27.6284 138.561 26.3331C138.563 25.013 137.896 24.0257 136.88 24.0257ZM147.809 29.5906H146.366V25.8669C146.366 24.7201 145.926 24.1454 145.058 24.1454C144.204 24.1454 143.618 24.8796 143.618 25.7336V29.5906H142.175V24.9594C142.175 24.386 142.161 23.7713 142.122 23.1044H143.39L143.457 24.1055H143.497C143.884 23.4125 144.672 22.9711 145.552 22.9711C146.914 22.9711 147.809 24.012 147.809 25.706V29.5906ZM157.507 24.1866H155.921V27.3355C155.921 28.1372 156.199 28.5373 156.76 28.5373C157.015 28.5373 157.228 28.5098 157.4 28.4699L157.44 29.5645C157.16 29.6717 156.786 29.7253 156.321 29.7253C155.185 29.7253 154.506 29.0983 154.506 27.4565V24.1866H153.56V23.1058H154.506V21.9178L155.921 21.4901V23.1044H157.507V24.1866ZM165.138 29.5906H163.698V25.8944C163.698 24.7339 163.259 24.1467 162.39 24.1467C161.643 24.1467 160.947 24.6541 160.947 25.6813V29.5906H159.507V20.1302H160.947V24.0257H160.976C161.43 23.3189 162.087 22.9711 162.926 22.9711C164.299 22.9711 165.138 24.0381 165.138 25.7336V29.5906ZM172.956 26.6947H168.63C168.658 27.9226 169.47 28.6157 170.674 28.6157C171.314 28.6157 171.902 28.5084 172.422 28.309L172.646 29.3101C172.033 29.5768 171.311 29.7102 170.47 29.7102C168.442 29.7102 167.241 28.4287 167.241 26.4417C167.241 24.4534 168.471 22.9587 170.308 22.9587C171.966 22.9587 173.005 24.1866 173.005 26.0416C173.015 26.2605 172.998 26.4797 172.956 26.6947ZM171.634 25.6675C171.634 24.6665 171.129 23.9597 170.208 23.9597C169.38 23.9597 168.725 24.6803 168.631 25.6675H171.634Z" fill="white"/>
</svg>
