<svg width="56" height="56" viewBox="0 0 56 56" fill="none" xmlns="http://www.w3.org/2000/svg">
<rect width="56" height="56" rx="10" fill="url(#paint0_linear_798_435)"/>
<path d="M35.0367 14.2905C34.493 12.6108 32.7515 10.6944 30.3165 10.4798C27.7312 10.2508 25.3433 11.4884 24.2673 14.5486C24.0118 15.2789 23.8501 16.0428 23.7863 16.8201C22.8818 15.5489 21.2183 13.8416 18.8101 13.8377C15.3809 13.8352 13.5993 16.1316 13.2159 17.9172C12.6899 20.3563 13.5945 22.2194 15.2629 22.306C16.933 22.3924 17.989 21.1867 18.9903 20.4868C20.44 19.4724 22.8467 19.4869 23.5635 21.0567C23.6848 21.4805 23.7975 21.9071 23.8979 22.3349C23.9613 22.922 23.4527 25.7856 23.2509 26.3274C22.977 27.0658 22.6752 27.5486 23.0147 27.9047C23.3025 28.2062 23.7987 28.2726 24.2372 28.2269C25.6197 28.0829 26.2165 27.3759 26.3682 27.1241C26.5516 26.8194 27.1931 23.2779 25.7932 20.4868C25.2018 18.4094 27.3383 17.8699 28.0101 17.7812C29.3646 17.6064 31.4949 17.894 32.8166 17.9362C35.812 18.0307 35.4307 15.51 35.0367 14.2905Z" fill="white"/>
<path d="M17.5 17.2462C17.625 16.9597 17.7747 16.6894 17.9451 16.43C18.1246 16.1566 18.5641 15.8411 18.5442 15.4723C18.5202 14.9766 17.7955 15.1026 17.51 15.1548C17.3236 15.1874 17.1384 15.231 16.958 15.2873C16.6312 15.3868 16.3153 15.5228 16.0211 15.6976C15.518 15.9972 15.0758 16.4067 14.7381 16.9026C14.4914 17.2654 14.289 17.6798 14.1955 18.1185C13.9733 19.1381 14.0773 20.0712 14.4677 20.6131C14.6846 20.9145 14.9796 21.0767 15.3449 21.0949C16.8724 21.1737 17.0076 19.3709 17.242 18.1758C17.3024 17.8642 17.3736 17.5365 17.5 17.2462ZM25.358 14.8489C25.3048 15.1784 25.3142 15.5315 25.4965 15.7541C25.6279 15.9127 25.9335 15.9708 26.1196 15.9009C26.6696 15.6956 26.9891 14.8476 27.2206 14.3365C27.3999 13.9395 27.6406 13.5529 27.8999 13.2094C28.0623 12.9939 28.2815 12.7444 28.3161 12.458C28.3792 11.9289 27.6528 12.2124 27.4376 12.2929C26.5979 12.6126 25.8438 13.4235 25.5104 14.2917C25.4515 14.4439 25.3918 14.6412 25.358 14.8489Z" fill="white"/>
<path d="M38.0891 34.1287C39.4732 38.7643 36.7885 43.6315 32.0922 44.9996C27.3959 46.3678 22.4665 43.7185 21.0823 39.0829C19.5854 34.0693 21.738 26.7912 23.2475 22.6931C23.4425 22.1636 23.5354 21.3668 24.1769 21.3351C24.6779 21.3103 24.9217 21.111 25.4066 20.9104C26.0354 20.6495 26.664 21.071 27.2575 21.5149C30.7756 24.1464 36.5908 29.1105 38.0891 34.1287Z" fill="white"/>
<path d="M31.8196 44.2314C28.4821 45.2547 25.1304 44.0339 24.3346 41.5045C23.5388 38.9751 25.6003 36.0948 28.9378 35.0715C32.2761 34.0481 35.6278 35.2688 36.4236 37.7982C37.2193 40.3277 35.1579 43.2079 31.8196 44.2314Z" fill="url(#paint1_linear_798_435)"/>
<path d="M24.687 25.2935C24.6582 25.2238 24.554 25.2035 24.4933 25.2376C24.1264 25.445 24.0049 26.0413 23.8662 26.4124C23.6815 26.9099 23.5141 27.4098 23.3631 27.9178C23.2137 28.4242 23.0684 28.933 22.9445 29.4459C22.8394 29.8818 22.5604 30.5275 22.7204 30.9602C22.7968 31.1676 23.0676 31.3078 23.2515 31.1166C23.588 30.7666 23.6003 30.1362 23.7103 29.6776C23.8326 29.1631 23.9532 28.6486 24.087 28.1366C24.2208 27.6245 24.3554 27.1133 24.4916 26.602C24.5975 26.2042 24.8495 25.6921 24.687 25.2935Z" fill="white"/>
<path d="M22.7106 31.8973C22.4734 31.8884 22.3223 32.0666 22.292 32.2805C22.2747 32.4013 22.2575 32.522 22.2403 32.6419C22.1984 32.7991 22.1738 32.9603 22.1705 33.1272C22.1672 33.3363 22.3338 33.521 22.5489 33.5291C22.7836 33.5372 22.9207 33.3638 22.956 33.1556C23.0036 32.8744 23.0512 32.5925 23.0988 32.3105C23.1341 32.0974 22.9084 31.9046 22.7106 31.8973Z" fill="white"/>
<path d="M25.954 20.8389C26.0096 20.9991 25.6518 21.5988 25.0419 21.8145C24.4319 22.0303 23.7722 21.7234 23.7166 21.5632C23.6611 21.4029 24.1303 21.1599 24.7403 20.9442C25.3502 20.7284 25.8985 20.6786 25.954 20.8389Z" fill="white"/>
<defs>
<linearGradient id="paint0_linear_798_435" x1="50.7733" y1="1.00766e-06" x2="6.16" y2="53.6667" gradientUnits="userSpaceOnUse">
<stop stop-color="#96C09F"/>
<stop offset="0.608474" stop-color="#5DD477"/>
<stop offset="1" stop-color="#4DDA6C"/>
</linearGradient>
<linearGradient id="paint1_linear_798_435" x1="36.0264" y1="34.9065" x2="24.1731" y2="44.0531" gradientUnits="userSpaceOnUse">
<stop stop-color="#80C890"/>
<stop offset="1" stop-color="#57D773"/>
</linearGradient>
</defs>
</svg>
