<svg width="40" height="40" viewBox="0 0 40 40" fill="none" xmlns="http://www.w3.org/2000/svg">
<rect width="40" height="40" rx="8" fill="url(#paint0_linear_798_572)"/>
<path d="M25.0261 10.2075C24.6377 9.00778 23.3938 7.63892 21.6545 7.48558C19.8078 7.32203 18.1022 8.20605 17.3336 10.3919C17.1512 10.9136 17.0356 11.4592 16.9901 12.0144C16.344 11.1064 15.1558 9.88689 13.4357 9.88407C10.9862 9.8823 9.71363 11.5226 9.43976 12.798C9.06409 14.5402 9.71023 15.871 10.9019 15.9329C12.0949 15.9946 12.8492 15.1334 13.5644 14.6335C14.5998 13.9089 16.3189 13.9192 16.831 15.0406C16.9176 15.3433 16.998 15.6479 17.0698 15.9535C17.1151 16.3729 16.7518 18.4183 16.6077 18.8053C16.412 19.3327 16.1964 19.6776 16.4389 19.9319C16.6445 20.1473 16.9989 20.1947 17.3122 20.1621C18.2996 20.0593 18.726 19.5542 18.8343 19.3744C18.9653 19.1568 19.4235 16.6271 18.4236 14.6335C18.0011 13.1496 19.5272 12.7643 20.0071 12.7009C20.9746 12.5761 22.4962 12.7815 23.4403 12.8116C25.5798 12.8791 25.3075 11.0786 25.0261 10.2075Z" fill="white"/>
<path d="M12.4999 12.3187C12.5892 12.1141 12.6961 11.921 12.8178 11.7358C12.946 11.5405 13.2599 11.3151 13.2457 11.0517C13.2286 10.6976 12.7109 10.7876 12.507 10.8249C12.3739 10.8482 12.2416 10.8793 12.1127 10.9195C11.8793 10.9906 11.6537 11.0877 11.4435 11.2126C11.0842 11.4266 10.7683 11.7191 10.5271 12.0733C10.3509 12.3325 10.2063 12.6285 10.1395 12.9418C9.98077 13.6701 10.0551 14.3366 10.3339 14.7237C10.4889 14.939 10.6995 15.0548 10.9605 15.0678C12.0516 15.1241 12.1481 13.8364 12.3156 12.9828C12.3587 12.7602 12.4096 12.5261 12.4999 12.3187ZM18.1127 10.6064C18.0747 10.8418 18.0814 11.0939 18.2116 11.253C18.3055 11.3663 18.5238 11.4078 18.6567 11.3578C19.0496 11.2112 19.2778 10.6054 19.4431 10.2404C19.5713 9.95679 19.7432 9.68068 19.9284 9.43529C20.0444 9.2814 20.201 9.10321 20.2257 8.89862C20.2707 8.52066 19.7519 8.7232 19.5982 8.78068C18.9984 9.00904 18.4597 9.58824 18.2216 10.2084C18.1795 10.3171 18.1369 10.458 18.1127 10.6064Z" fill="white"/>
<path d="M27.2064 24.3777C28.195 27.6888 26.2774 31.1654 22.9229 32.1426C19.5684 33.1199 16.0473 31.2275 15.0587 27.9164C13.9894 24.3352 15.527 19.1366 16.6052 16.2094C16.7445 15.8312 16.8109 15.2621 17.2691 15.2394C17.6269 15.2217 17.8011 15.0793 18.1475 14.936C18.5966 14.7497 19.0455 15.0507 19.4695 15.3678C21.9824 17.2474 26.1361 20.7932 27.2064 24.3777Z" fill="white"/>
<path d="M22.7281 31.5939C20.3442 32.3248 17.9502 31.4529 17.3817 29.6461C16.8133 27.8394 18.2858 25.782 20.6697 25.0511C23.0542 24.3201 25.4483 25.192 26.0167 26.9988C26.5851 28.8055 25.1126 30.8628 22.7281 31.5939Z" fill="url(#paint1_linear_798_572)"/>
<path d="M17.6334 18.0668C17.6129 18.017 17.5384 18.0026 17.4951 18.0269C17.233 18.175 17.1462 18.601 17.0472 18.866C16.9152 19.2214 16.7956 19.5785 16.6878 19.9413C16.5811 20.303 16.4773 20.6665 16.3888 21.0328C16.3137 21.3442 16.1144 21.8054 16.2287 22.1145C16.2833 22.2626 16.4767 22.3627 16.608 22.2262C16.8484 21.9762 16.8572 21.5259 16.9358 21.1983C17.0231 20.8308 17.1093 20.4633 17.2049 20.0976C17.3004 19.7318 17.3966 19.3666 17.4939 19.0015C17.5695 18.7173 17.7495 18.3515 17.6334 18.0668Z" fill="white"/>
<path d="M16.2217 22.7838C16.0523 22.7774 15.9444 22.9048 15.9227 23.0576C15.9104 23.1438 15.8981 23.23 15.8858 23.3157C15.8559 23.4279 15.8383 23.5431 15.8359 23.6623C15.8336 23.8116 15.9526 23.9436 16.1062 23.9494C16.2739 23.9552 16.3718 23.8313 16.397 23.6826C16.431 23.4818 16.465 23.2804 16.499 23.079C16.5242 22.9268 16.363 22.789 16.2217 22.7838Z" fill="white"/>
<path d="M18.5385 14.8849C18.5781 14.9994 18.3226 15.4277 17.8869 15.5818C17.4512 15.736 16.98 15.5168 16.9403 15.4023C16.9007 15.2879 17.2358 15.1143 17.6715 14.9602C18.1072 14.806 18.4988 14.7705 18.5385 14.8849Z" fill="white"/>
<defs>
<linearGradient id="paint0_linear_798_572" x1="36.2667" y1="7.19759e-07" x2="4.4" y2="38.3333" gradientUnits="userSpaceOnUse">
<stop stop-color="#96C09F"/>
<stop offset="0.608474" stop-color="#5DD477"/>
<stop offset="1" stop-color="#4DDA6C"/>
</linearGradient>
<linearGradient id="paint1_linear_798_572" x1="25.733" y1="24.9332" x2="17.2663" y2="31.4666" gradientUnits="userSpaceOnUse">
<stop stop-color="#80C890"/>
<stop offset="1" stop-color="#57D773"/>
</linearGradient>
</defs>
</svg>
