<svg width="97" height="126" viewBox="0 0 97 126" fill="none" xmlns="http://www.w3.org/2000/svg">
<g filter="url(#filter0_di_798_478)">
<path d="M78.5614 15.5323C76.741 10.0468 70.9098 3.7881 62.757 3.08702C54.1007 2.33922 46.1057 6.38112 42.5029 16.3752C41.6477 18.7604 41.1061 21.2551 40.8924 23.7935C37.8639 19.6419 32.2942 14.0662 24.2312 14.0534C12.7494 14.0452 6.78416 21.545 5.50042 27.3764C3.73943 35.3422 6.76824 41.4268 12.3543 41.7096C17.9462 41.9919 21.482 38.0543 24.8345 35.7685C29.6882 32.4555 37.7464 32.5029 40.1467 37.6298C40.5526 39.0138 40.9299 40.4069 41.266 41.8041C41.4784 43.7216 39.7756 53.0737 39.0999 54.8429C38.1827 57.2544 37.1722 58.8312 38.309 59.9942C39.2728 60.979 40.9339 61.1956 42.4024 61.0465C47.0311 60.5763 49.0295 58.2672 49.5371 57.4448C50.1512 56.4499 52.2993 44.8838 47.6119 35.7685C45.6319 28.9841 52.7854 27.2221 55.0347 26.9324C59.5698 26.3617 66.7027 27.3009 71.1278 27.4386C81.157 27.7473 79.8803 19.515 78.5614 15.5323Z" fill="#008000"/>
<path d="M19.8446 25.1851C20.2632 24.2495 20.7645 23.3666 21.3349 22.5196C21.936 21.6266 23.4073 20.5963 23.3407 19.392C23.2604 17.773 20.8339 18.1846 19.8782 18.3551C19.2541 18.4613 18.6338 18.6039 18.0297 18.7876C16.9358 19.1128 15.8781 19.5567 14.893 20.1277C13.2085 21.1063 11.7278 22.4434 10.5971 24.063C9.77122 25.248 9.09357 26.6014 8.78038 28.034C8.03638 31.3638 8.38483 34.4113 9.69191 36.1809C10.4182 37.1654 11.4056 37.6952 12.6288 37.7544C17.7432 38.0117 18.1959 32.124 18.9809 28.2212C19.1831 27.2036 19.4214 26.1334 19.8446 25.1851ZM46.155 17.3558C45.9767 18.4322 46.0083 19.5851 46.6186 20.3122C47.0586 20.8302 48.0817 21.0199 48.7049 20.7915C50.5463 20.1212 51.616 17.3516 52.3913 15.6825C52.9918 14.3858 53.7977 13.1234 54.6657 12.0015C55.2095 11.2978 55.9435 10.4831 56.0594 9.54767C56.2704 7.81959 53.8384 8.74563 53.1179 9.00844C50.3064 10.0525 47.7814 12.7008 46.6652 15.5362C46.4678 16.0334 46.2681 16.6776 46.155 17.3558Z" fill="#BDCF46"/>
<path d="M88.7813 80.3209C93.4157 95.46 84.4266 111.356 68.7024 115.824C52.9782 120.292 36.4734 111.64 31.839 96.5006C26.8269 80.1268 34.0343 56.3578 39.0884 42.9738C39.7414 41.2447 40.0525 38.6426 42.2003 38.539C43.8778 38.458 44.6941 37.8071 46.3177 37.1518C48.4229 36.2999 50.5275 37.6763 52.5149 39.1262C64.2942 47.7201 83.7647 63.9321 88.7813 80.3209Z" fill="#A37B65"/>
<path d="M67.7897 113.315C56.6149 116.657 45.3929 112.67 42.7284 104.409C40.064 96.1484 46.9662 86.7418 58.1409 83.4001C69.3183 80.0576 80.5403 84.0442 83.2048 92.305C85.8692 100.566 78.9671 109.972 67.7897 113.315Z" fill="#75503F" fill-opacity="0.8"/>
<path d="M43.9081 51.4664C43.8119 51.2388 43.4629 51.1727 43.2596 51.2838C42.0312 51.9612 41.6245 53.9087 41.1601 55.1206C40.5417 56.7453 39.9811 58.3779 39.4755 60.037C38.9753 61.6908 38.4889 63.3526 38.0739 65.0276C37.7222 66.4512 36.7879 68.5601 37.3238 69.9731C37.5793 70.6505 38.4862 71.1083 39.1017 70.4838C40.2284 69.3407 40.2697 67.282 40.6379 65.7843C41.0474 64.1041 41.4514 62.4238 41.8993 60.7515C42.3472 59.0792 42.7979 57.4095 43.2541 55.7398C43.6086 54.4406 44.4522 52.7683 43.9081 51.4664Z" fill="white"/>
<path d="M37.2907 73.0335C36.4965 73.0044 35.9909 73.5865 35.8892 74.2851C35.8315 74.6793 35.7738 75.0736 35.7161 75.4652C35.576 75.9785 35.4935 76.5051 35.4825 77.0502C35.4715 77.7329 36.0294 78.3362 36.7494 78.3627C37.5353 78.3891 37.9942 77.8229 38.1124 77.1428C38.2718 76.2246 38.4312 75.3038 38.5906 74.383C38.7087 73.687 37.953 73.0573 37.2907 73.0335Z" fill="white"/>
<path d="M48.1506 36.9183C48.3365 37.4416 47.1387 39.4 45.0964 40.1047C43.054 40.8093 40.8452 39.8071 40.6593 39.2838C40.4734 38.7605 42.0442 37.9668 44.0865 37.2622C46.1289 36.5576 47.9647 36.395 48.1506 36.9183Z" fill="#008000"/>
</g>
<defs>
<filter id="filter0_di_798_478" x="0" y="0" width="97" height="126" filterUnits="userSpaceOnUse" color-interpolation-filters="sRGB">
<feFlood flood-opacity="0" result="BackgroundImageFix"/>
<feColorMatrix in="SourceAlpha" type="matrix" values="0 0 0 0 0 0 0 0 0 0 0 0 0 0 0 0 0 0 127 0" result="hardAlpha"/>
<feOffset dx="1" dy="3"/>
<feGaussianBlur stdDeviation="3"/>
<feComposite in2="hardAlpha" operator="out"/>
<feColorMatrix type="matrix" values="0 0 0 0 0 0 0 0 0 0 0 0 0 0 0 0 0 0 0.2 0"/>
<feBlend mode="normal" in2="BackgroundImageFix" result="effect1_dropShadow_798_478"/>
<feBlend mode="normal" in="SourceGraphic" in2="effect1_dropShadow_798_478" result="shape"/>
<feColorMatrix in="SourceAlpha" type="matrix" values="0 0 0 0 0 0 0 0 0 0 0 0 0 0 0 0 0 0 127 0" result="hardAlpha"/>
<feOffset dx="-1" dy="-2"/>
<feGaussianBlur stdDeviation="3"/>
<feComposite in2="hardAlpha" operator="arithmetic" k2="-1" k3="1"/>
<feColorMatrix type="matrix" values="0 0 0 0 0.270833 0 0 0 0 0.187326 0 0 0 0 0.187326 0 0 0 0.3 0"/>
<feBlend mode="normal" in2="shape" result="effect2_innerShadow_798_478"/>
</filter>
</defs>
</svg>
