<svg width="40" height="40" viewBox="0 0 40 40" fill="none" xmlns="http://www.w3.org/2000/svg">
<rect width="40" height="40" rx="12" fill="#F5F9FF" fill-opacity="0.9"/>
<path d="M12.0732 20.8369H27.9194C28.3594 20.8369 28.7329 20.4634 28.7329 20.0234C28.7329 19.5752 28.3594 19.21 27.9194 19.21H12.0732C11.6333 19.21 11.2598 19.5752 11.2598 20.0234C11.2598 20.4634 11.6333 20.8369 12.0732 20.8369Z" fill="#333537"/>
<path d="M12.0732 20.8369H27.9194C28.3594 20.8369 28.7329 20.4634 28.7329 20.0234C28.7329 19.5752 28.3594 19.21 27.9194 19.21H12.0732C11.6333 19.21 11.2598 19.5752 11.2598 20.0234C11.2598 20.4634 11.6333 20.8369 12.0732 20.8369Z" fill="#333537" fill-opacity="0.8"/>
</svg>
