<svg width="200" height="76" viewBox="0 0 200 76" fill="none" xmlns="http://www.w3.org/2000/svg">
<rect y="0.280273" width="200" height="75" rx="16" fill="#312D43"/>
<path d="M17.3735 19.2286V38.3137V57.3988L38.4296 38.3137L17.3735 19.2286Z" fill="url(#paint0_linear_798_299)"/>
<path d="M44.0824 33.1899L35.5848 28.7025L17.3735 19.0909V19.229L38.4296 38.3141L44.0824 33.1899Z" fill="url(#paint1_linear_798_299)"/>
<path d="M17.3735 57.3979V57.5394L35.5848 47.9244L44.0824 43.4403L38.4296 38.3128L17.3735 57.3979Z" fill="url(#paint2_linear_798_299)"/>
<path d="M44.0834 33.189L38.4307 38.3132L44.0834 43.4407L53.7971 38.3132L44.0834 33.189Z" fill="url(#paint3_linear_798_299)"/>
<path d="M149.922 46.998C149.13 46.998 148.411 46.8632 147.755 46.5971C147.103 46.331 146.554 45.9199 146.108 45.3674H145.975C146.064 46.0143 146.108 46.6308 146.108 47.2102V51.7785H144.269V35.6952H145.765L146.019 37.2146H146.108C146.58 36.6082 147.132 36.1668 147.759 35.8973C148.385 35.6278 149.107 35.493 149.918 35.493C151.528 35.493 152.77 35.995 153.647 37.0023C154.521 38.0096 154.959 39.4212 154.959 41.2371C154.959 43.053 154.513 44.478 153.625 45.4853C152.733 46.496 151.499 46.998 149.918 46.998H149.922ZM149.657 36.9215C148.415 36.9215 147.519 37.2348 146.966 37.8648C146.414 38.4914 146.126 39.492 146.112 40.8631V41.2371C146.112 42.7969 146.395 43.912 146.966 44.5858C147.534 45.2563 148.448 45.5932 149.701 45.5932C150.751 45.5932 151.573 45.2057 152.166 44.4275C152.759 43.6526 153.058 42.5813 153.058 41.2169C153.058 39.8525 152.759 38.771 152.166 38.0299C151.573 37.2887 150.733 36.9215 149.657 36.9215Z" fill="#F9F9F9"/>
<path d="M159.218 46.7966H157.379V31.0366H159.218V46.7966Z" fill="#F9F9F9"/>
<path d="M169.795 46.7974L169.43 45.2174H169.342C168.737 45.9148 168.133 46.3831 167.529 46.629C166.928 46.8749 166.176 46.9996 165.273 46.9996C164.068 46.9996 163.125 46.7166 162.443 46.1472C161.762 45.5779 161.419 44.7727 161.419 43.7283C161.419 41.488 163.379 40.3122 167.3 40.2044L169.36 40.1438V39.4565C169.36 38.5839 169.154 37.9405 168.745 37.5261C168.336 37.1117 167.68 36.9028 166.777 36.9028C165.764 36.9028 164.621 37.1858 163.343 37.7552L162.779 36.4682C163.376 36.1718 164.032 35.9393 164.746 35.7709C165.458 35.6024 166.173 35.5182 166.891 35.5182C168.339 35.5182 169.412 35.8113 170.108 36.4009C170.805 36.9871 171.155 37.9304 171.155 39.2274V46.8042H169.791L169.795 46.7974ZM165.642 45.6116C166.788 45.6116 167.683 45.3252 168.339 44.7525C168.992 44.1798 169.32 43.3746 169.32 42.3403V41.3364L167.481 41.4071C166.018 41.4543 164.964 41.6632 164.319 42.0304C163.674 42.3976 163.35 42.9703 163.35 43.7485C163.35 44.3549 163.549 44.8199 163.954 45.1365C164.356 45.4532 164.92 45.6116 165.646 45.6116H165.642Z" fill="#F9F9F9"/>
<path d="M172.222 35.6948H174.193L176.854 42.025C177.436 43.4703 177.801 44.5147 177.941 45.1548H178.029C178.125 44.8111 178.328 44.2216 178.634 43.3861C178.939 42.5506 179.942 39.9902 181.641 35.6948H183.612L178.394 48.3351C177.878 49.5849 177.274 50.471 176.581 50.9932C175.892 51.5154 175.044 51.7781 174.038 51.7781C173.478 51.7781 172.922 51.7209 172.376 51.6063V50.2587C172.782 50.3396 173.239 50.38 173.74 50.38C175.004 50.38 175.903 49.7332 176.445 48.4361L177.119 46.8561L172.222 35.6948Z" fill="#F9F9F9"/>
<path d="M115.853 36.7275C116.435 37.1689 117.655 38.0987 117.655 39.864C117.655 41.6293 116.59 42.3941 115.521 43.1622C115.19 43.4621 114.81 43.7888 114.81 44.3009C114.81 44.813 115.19 45.0893 115.47 45.2981L116.384 45.9483C117.5 46.8074 118.517 47.5991 118.517 49.1994C118.517 51.3825 116.207 53.5857 111.84 53.5857C108.155 53.5857 106.379 51.9855 106.379 50.264C106.379 49.4285 106.836 48.246 108.336 47.4307C109.909 46.548 112.043 46.4335 113.185 46.3627C112.828 45.945 112.422 45.5036 112.422 44.7861C112.422 44.3919 112.551 44.1594 112.677 43.8798C112.396 43.9034 112.116 43.927 111.862 43.927C109.172 43.927 107.647 42.0909 107.647 40.2818C107.647 39.2138 108.181 38.0279 109.272 37.1689C110.72 36.0773 112.448 35.892 113.819 35.892H119.048L117.423 36.7275H115.849H115.853ZM114.051 47.0365C113.848 47.0129 113.719 47.0129 113.469 47.0129C113.24 47.0129 111.866 47.0601 110.801 47.3869C110.241 47.5722 108.616 48.1281 108.616 49.7788C108.616 51.4296 110.37 52.6121 113.086 52.6121C115.521 52.6121 116.818 51.5408 116.818 50.1023C116.818 48.9164 115.978 48.2898 114.051 47.0365ZM114.788 42.6232C115.37 42.0875 115.422 41.3464 115.422 40.9286C115.422 39.2576 114.331 36.6568 112.223 36.6568C111.564 36.6568 110.852 36.9566 110.443 37.4249C110.012 37.9134 109.883 38.54 109.883 39.1431C109.883 40.6995 110.875 43.2768 113.06 43.2768C113.694 43.2768 114.379 42.9971 114.788 42.6266V42.6232Z" fill="#F9F9F9"/>
<path d="M99.8653 46.6657C95.8339 46.6657 93.6782 43.792 93.6782 41.1945C93.6782 38.1591 96.3904 35.5616 100.245 35.5616C104.099 35.5616 106.303 38.2265 106.303 41.0328C106.303 43.8392 103.996 46.6657 99.8616 46.6657H99.8653ZM103.034 44.7892C103.642 44.048 103.797 43.1182 103.797 42.2153C103.797 40.1737 102.732 36.2792 99.589 36.2792C98.7525 36.2792 97.916 36.5824 97.3079 37.0676C96.3204 37.8795 96.1398 38.8969 96.1398 39.8975C96.1398 42.1917 97.3816 45.9683 100.451 45.9683C101.439 45.9683 102.456 45.5304 103.034 44.7892Z" fill="#F9F9F9"/>
<path d="M86.1222 46.6657C82.0908 46.6657 79.9351 43.792 79.9351 41.1945C79.9351 38.1591 82.6472 35.5616 86.5017 35.5616C90.3562 35.5616 92.5598 38.2265 92.5598 41.0328C92.5598 43.8392 90.253 46.6657 86.1185 46.6657H86.1222ZM89.2913 44.7892C89.8993 44.048 90.0541 43.1182 90.0541 42.2153C90.0541 40.1737 88.9891 36.2792 85.8458 36.2792C85.0093 36.2792 84.1728 36.5824 83.5648 37.0676C82.5772 37.8795 82.3966 38.8969 82.3966 39.8975C82.3966 42.1917 83.6385 45.9683 86.7081 45.9683C87.6957 45.9683 88.709 45.5304 89.2949 44.7892H89.2913Z" fill="#F9F9F9"/>
<path d="M77.9972 46.3031L74.3528 47.0712C72.8751 47.2801 71.5485 47.4653 70.1482 47.4653C63.1099 47.4653 60.4346 42.7353 60.4346 39.0295C60.4346 34.5084 64.2338 30.314 70.7341 30.314C72.1123 30.314 73.4352 30.4993 74.6328 30.8025C76.5454 31.291 77.4371 31.8974 77.9972 32.2478L75.8821 34.0872L74.9903 34.2725L75.6278 33.3393C74.7618 32.5712 73.181 31.1495 70.174 31.1495C66.1463 31.1495 63.1136 33.9458 63.1136 38.0256C63.1136 42.4052 66.5811 46.5321 72.1381 46.5321C73.7706 46.5321 74.6107 46.2289 75.3772 45.9493V42.1963L71.5301 42.3816L73.5679 41.3777H78.9738L78.3105 41.9605C78.1299 42.102 78.1078 42.1491 78.0562 42.3344C78.0304 42.5433 78.0046 43.2205 78.0046 43.4529V46.2963L77.9972 46.3031Z" fill="#F9F9F9"/>
<path d="M123.908 45.6322C123.068 45.5614 122.891 45.4233 122.891 44.5137V31.3242C122.895 31.2737 122.898 31.2232 122.906 31.1726C123.009 30.3573 123.263 30.2158 124.055 29.7981H120.407L118.495 30.637H120.444V30.6471V30.637V44.2543V45.0257C120.444 45.4907 120.345 45.5614 119.755 46.2588H124.269L125.212 45.7467C124.781 45.6995 124.346 45.676 123.912 45.6288L123.908 45.6322Z" fill="#F9F9F9"/>
<path d="M134.282 45.8489C134.005 45.987 133.725 46.1521 133.449 46.2667C132.612 46.6137 131.75 46.708 130.991 46.708C130.184 46.708 128.916 46.6608 127.623 45.8051C125.828 44.6462 125.043 42.6551 125.043 40.9201C125.043 37.3322 128.235 35.5736 130.84 35.5736C131.75 35.5736 132.69 35.7825 133.449 36.2204C134.713 36.9818 135.045 37.979 135.218 38.5113L129.27 40.7113L127.321 40.8494C127.951 43.7871 130.129 45.4985 132.535 45.4985C133.825 45.4985 134.764 45.0842 135.623 44.69L134.282 45.8455V45.8489ZM131.905 38.9493C132.384 38.7876 132.638 38.6495 132.638 38.326C132.638 37.3996 131.5 36.335 130.132 36.335C129.119 36.335 127.221 37.0526 127.221 39.5523C127.221 39.9465 127.273 40.3609 127.299 40.7786L131.905 38.9493Z" fill="#F9F9F9"/>
<path d="M136.73 35.7274V37.2536H136.527V35.7274H135.975V35.5691H137.283V35.7274H136.73Z" fill="#F9F9F9"/>
<path d="M139.006 37.258V35.715H138.995L138.479 37.258H138.321L137.801 35.715H137.794V37.258H137.609V35.5735H137.926L138.394 36.9346H138.402L138.862 35.5735H139.183V37.258H138.999H139.006Z" fill="#F9F9F9"/>
<path d="M65.495 25.7777H64.2274C64.2274 25.6193 64.1058 25.1679 63.8663 24.4234H62.0385C61.7916 25.1544 61.6663 25.6059 61.6663 25.7777H60.4761C60.4761 25.6833 60.7856 24.9119 61.401 23.4598C62.0164 22.0112 62.3259 21.2127 62.3259 21.0645H63.822C63.822 21.2026 64.1021 21.9876 64.6585 23.4261C65.215 24.8613 65.495 25.6463 65.495 25.7777ZM63.6673 23.7327C63.2177 22.4862 62.9892 21.8158 62.9892 21.7147H62.9266C62.9266 21.8091 62.6944 22.4828 62.2264 23.7327H63.6673Z" fill="#F9F9FA"/>
<path d="M70.6023 25.7777H69.6257C69.6257 25.68 69.2646 25.1578 68.5387 24.2111C67.7796 23.2139 67.3447 22.5334 67.2416 22.1662H67.1789C67.2452 22.6951 67.2784 23.1735 67.2784 23.598C67.2784 24.1943 67.2968 24.9186 67.3337 25.7777H66.3608C66.4014 25.0298 66.4198 24.2077 66.4198 23.3116C66.4198 22.4155 66.4014 21.681 66.3608 21.0645H67.5364C67.5364 21.1925 67.8606 21.7012 68.5129 22.594C69.2057 23.5407 69.6036 24.1842 69.7068 24.5244H69.7658C69.7031 23.9854 69.67 23.5036 69.67 23.0758C69.67 22.4222 69.6515 21.7518 69.6147 21.0645H70.606C70.5691 21.6642 70.5507 22.4121 70.5507 23.3116C70.5507 24.2111 70.5691 25.0399 70.606 25.7777H70.6023Z" fill="#F9F9FA"/>
<path d="M76.3391 23.2596C76.3391 23.9435 76.0995 24.5432 75.6168 25.0553C75.1378 25.5673 74.4634 25.8234 73.5974 25.8234C73.2068 25.8234 72.6688 25.8099 71.9834 25.7796C72.0166 25.0519 72.035 24.2299 72.035 23.3135C72.035 22.3972 72.0166 21.6863 71.9834 21.0664H72.6762C72.7904 21.0664 72.9599 21.063 73.181 21.0563C73.4058 21.0496 73.5532 21.0462 73.6195 21.0462C74.5703 21.0462 75.263 21.2618 75.6905 21.6964C76.118 22.131 76.3354 22.6532 76.3354 23.2596H76.3391ZM75.2594 23.4146C75.2594 22.9497 75.112 22.5622 74.8172 22.2422C74.5224 21.9255 74.0691 21.7672 73.4648 21.7672C73.3505 21.7672 73.1958 21.7773 72.9968 21.8008C73.0226 22.2826 73.0373 22.7879 73.0373 23.3135C73.0373 23.8896 73.052 24.4623 73.0778 25.0283C73.251 25.0586 73.4205 25.0755 73.5937 25.0755C74.1612 25.0755 74.5813 24.9138 74.854 24.5937C75.1267 24.2703 75.263 23.8795 75.263 23.4146H75.2594Z" fill="#F9F9FA"/>
<path d="M81.6275 25.7762H80.4556C80.1498 24.9205 79.9139 24.3949 79.7518 24.1962C79.5897 23.9974 79.3243 23.8963 78.9595 23.8963C78.8048 23.8963 78.661 23.8963 78.521 23.8997C78.521 24.5196 78.5321 25.1462 78.5579 25.7796H77.4561C77.4892 25.0519 77.5076 24.2299 77.5076 23.3135C77.5076 22.3972 77.4892 21.6863 77.4561 21.0664H78.1415C78.2188 21.0664 78.3847 21.063 78.6389 21.0563C78.8895 21.0496 79.1254 21.0462 79.3391 21.0462C80.5514 21.0462 81.1558 21.4235 81.1558 22.1815C81.1558 22.7812 80.8094 23.2023 80.1203 23.4382V23.4921C80.3856 23.5594 80.6215 23.7481 80.8204 24.0614C81.0194 24.3747 81.2921 24.9474 81.6312 25.7796L81.6275 25.7762ZM80.1424 22.4477C80.1424 21.9693 79.8034 21.7267 79.129 21.7267C78.8821 21.7267 78.661 21.7436 78.4731 21.7773C78.5026 22.1512 78.5173 22.6397 78.5173 23.2394C78.661 23.2428 78.7863 23.2461 78.8858 23.2461C79.726 23.2461 80.1461 22.98 80.1461 22.4477H80.1424Z" fill="#F9F9FA"/>
<path d="M87.3028 23.3341C87.3028 24.0753 87.0559 24.6884 86.5584 25.1769C86.0609 25.6654 85.4492 25.908 84.7159 25.908C83.9826 25.908 83.4372 25.6856 82.9656 25.2375C82.4976 24.7895 82.2617 24.2201 82.2617 23.5329C82.2617 22.7917 82.5086 22.1785 83.0061 21.69C83.5036 21.2015 84.1153 20.959 84.8486 20.959C85.5819 20.959 86.1273 21.1813 86.599 21.6294C87.067 22.0775 87.3028 22.6435 87.3028 23.3375V23.3341ZM86.212 23.4385C86.212 22.9332 86.072 22.5255 85.7883 22.2122C85.5045 21.8989 85.1581 21.7406 84.7417 21.7406C84.3548 21.7406 84.0305 21.8989 83.7615 22.2156C83.4925 22.5323 83.3562 22.9298 83.3562 23.4149C83.3562 23.9001 83.4962 24.3246 83.7799 24.6412C84.0637 24.9546 84.4101 25.1129 84.8228 25.1129C85.2097 25.1129 85.534 24.9546 85.803 24.6379C86.072 24.3212 86.2083 23.9237 86.2083 23.4419L86.212 23.4385Z" fill="#F9F9FA"/>
<path d="M89.5397 25.7777H88.4194C88.4526 25.0298 88.471 24.2077 88.471 23.3116C88.471 22.4155 88.4526 21.681 88.4194 21.0645H89.5397C89.5065 21.6709 89.4881 22.4222 89.4881 23.3116C89.4881 24.201 89.5065 25.0432 89.5397 25.7777Z" fill="#F9F9FA"/>
<path d="M95.2756 23.2596C95.2756 23.9435 95.0361 24.5432 94.5533 25.0553C94.0743 25.5673 93.3999 25.8234 92.534 25.8234C92.1433 25.8234 91.6053 25.8099 90.9199 25.7796C90.9531 25.0519 90.9715 24.2299 90.9715 23.3135C90.9715 22.3972 90.9531 21.6863 90.9199 21.0664H91.6127C91.7269 21.0664 91.8964 21.063 92.1212 21.0563C92.346 21.0496 92.4934 21.0462 92.5597 21.0462C93.5105 21.0462 94.2033 21.2618 94.6307 21.6964C95.0582 22.131 95.2756 22.6532 95.2756 23.2596ZM94.1959 23.4146C94.1959 22.9497 94.0485 22.5622 93.7537 22.2422C93.4589 21.9255 93.0056 21.7672 92.4013 21.7672C92.2871 21.7672 92.1323 21.7773 91.9333 21.8008C91.9591 22.2826 91.9738 22.7879 91.9738 23.3135C91.9738 23.8896 91.9886 24.4623 92.0144 25.0283C92.1876 25.0586 92.3571 25.0755 92.5303 25.0755C93.0978 25.0755 93.5178 24.9138 93.7905 24.5937C94.0632 24.2703 94.1996 23.8795 94.1996 23.4146H94.1959Z" fill="#F9F9FA"/>
<path d="M102.889 25.7777H101.621C101.621 25.6193 101.5 25.1679 101.26 24.4234H99.4326C99.1857 25.1544 99.0604 25.6059 99.0604 25.7777H97.8701C97.8701 25.6833 98.1797 24.9119 98.7951 23.4598C99.4104 22.0112 99.72 21.2127 99.72 21.0645H101.216C101.216 21.2026 101.496 21.9876 102.053 23.4261C102.609 24.8613 102.889 25.6463 102.889 25.7777ZM101.061 23.7327C100.612 22.4862 100.383 21.8158 100.383 21.7147H100.321C100.321 21.8091 100.088 22.4828 99.6205 23.7327H101.061Z" fill="#F9F9FA"/>
<path d="M107.507 22.3006C107.507 22.8767 107.272 23.3046 106.804 23.5775C106.336 23.8537 105.761 23.9885 105.079 23.9885C104.954 23.9885 104.865 23.9885 104.814 23.9817C104.814 24.4365 104.829 25.0328 104.858 25.7774H103.745C103.778 25.08 103.797 24.258 103.797 23.3113C103.797 22.4421 103.778 21.6942 103.745 21.0642H104.434C104.53 21.0642 104.718 21.0609 104.998 21.0541C105.274 21.0474 105.514 21.044 105.72 21.044C106.221 21.044 106.645 21.1484 106.992 21.354C107.338 21.5628 107.511 21.8761 107.511 22.2973L107.507 22.3006ZM106.487 22.4994C106.487 21.9839 106.111 21.7245 105.363 21.7245C105.175 21.7245 104.976 21.7414 104.77 21.7784C104.799 22.2332 104.814 22.7521 104.814 23.3282C104.88 23.3315 104.957 23.3349 105.042 23.3349C106.004 23.3349 106.487 23.0553 106.487 22.4994Z" fill="#F9F9FA"/>
<path d="M112.254 22.3007C112.254 22.8768 112.018 23.3047 111.55 23.5776C111.082 23.8538 110.507 23.9886 109.825 23.9886C109.7 23.9886 109.611 23.9886 109.56 23.9819C109.56 24.4367 109.575 25.033 109.604 25.7775H108.491C108.524 25.0801 108.543 24.2581 108.543 23.3114C108.543 22.4422 108.524 21.6943 108.491 21.0643H109.18C109.276 21.0643 109.464 21.061 109.744 21.0542C110.02 21.0475 110.26 21.0441 110.466 21.0441C110.968 21.0441 111.391 21.1486 111.738 21.3541C112.084 21.5629 112.257 21.8763 112.257 22.2974L112.254 22.3007ZM111.233 22.4995C111.233 21.9841 110.857 21.7247 110.109 21.7247C109.921 21.7247 109.722 21.7415 109.516 21.7786C109.545 22.2334 109.56 22.7522 109.56 23.3283C109.626 23.3316 109.704 23.335 109.788 23.335C110.75 23.335 111.233 23.0554 111.233 22.4995Z" fill="#F9F9FA"/>
<path d="M120.019 23.3341C120.019 24.0753 119.772 24.6884 119.275 25.1769C118.777 25.6654 118.166 25.908 117.432 25.908C116.699 25.908 116.154 25.6856 115.682 25.2375C115.214 24.7895 114.978 24.2201 114.978 23.5329C114.978 22.7917 115.225 22.1785 115.722 21.69C116.22 21.2015 116.832 20.959 117.565 20.959C118.298 20.959 118.844 21.1813 119.315 21.6294C119.783 22.0775 120.019 22.6435 120.019 23.3375V23.3341ZM118.928 23.4385C118.928 22.9332 118.788 22.5255 118.505 22.2122C118.221 21.8989 117.874 21.7406 117.458 21.7406C117.071 21.7406 116.747 21.8989 116.478 22.2156C116.209 22.5323 116.072 22.9298 116.072 23.4149C116.072 23.9001 116.212 24.3246 116.5 24.6412C116.784 24.9546 117.13 25.1129 117.543 25.1129C117.93 25.1129 118.254 24.9546 118.523 24.6379C118.792 24.3212 118.928 23.9237 118.928 23.4419V23.4385Z" fill="#F9F9FA"/>
<path d="M125.382 25.7777H124.406C124.406 25.68 124.044 25.1578 123.318 24.2111C122.559 23.2139 122.125 22.5334 122.021 22.1662H121.959C122.025 22.6951 122.058 23.1735 122.058 23.598C122.058 24.1943 122.077 24.9186 122.113 25.7777H121.141C121.181 25.0298 121.2 24.2077 121.2 23.3116C121.2 22.4155 121.181 21.681 121.141 21.0645H122.316C122.316 21.1925 122.64 21.7012 123.293 22.594C123.985 23.5407 124.383 24.1842 124.487 24.5244H124.546C124.483 23.9854 124.45 23.5036 124.45 23.0758C124.45 22.4222 124.431 21.7518 124.394 21.0645H125.386C125.349 21.6642 125.33 22.4121 125.33 23.3116C125.33 24.2111 125.349 25.0399 125.386 25.7777H125.382Z" fill="#F9F9FA"/>
<defs>
<linearGradient id="paint0_linear_798_299" x1="27.9016" y1="19.2286" x2="27.9016" y2="57.3988" gradientUnits="userSpaceOnUse">
<stop stop-color="#257CB0"/>
<stop offset="0.21" stop-color="#3C8FB3"/>
<stop offset="0.74" stop-color="#73BDBA"/>
<stop offset="1" stop-color="#89CFBD"/>
</linearGradient>
<linearGradient id="paint1_linear_798_299" x1="17.3735" y1="28.7025" x2="44.0824" y2="28.7025" gradientUnits="userSpaceOnUse">
<stop stop-color="#52C1AD"/>
<stop offset="1" stop-color="#DEE89A"/>
</linearGradient>
<linearGradient id="paint2_linear_798_299" x1="30.728" y1="38.3128" x2="30.728" y2="57.5394" gradientUnits="userSpaceOnUse">
<stop stop-color="#EC413D"/>
<stop offset="0.19" stop-color="#D64251"/>
<stop offset="0.74" stop-color="#9F4887"/>
<stop offset="1" stop-color="#8A4A9D"/>
</linearGradient>
<linearGradient id="paint3_linear_798_299" x1="46.1139" y1="33.189" x2="46.1139" y2="43.4407" gradientUnits="userSpaceOnUse">
<stop stop-color="#F58879"/>
<stop offset="0.62" stop-color="#FAB275"/>
<stop offset="1" stop-color="#FEC874"/>
</linearGradient>
</defs>
</svg>
