<svg width="40" height="40" viewBox="0 0 40 40" fill="none" xmlns="http://www.w3.org/2000/svg">
<rect width="40" height="40" rx="12" fill="#F5F9FF" fill-opacity="0.9"/>
<path d="M12.0732 20.812H19.187V27.9258C19.187 28.3657 19.5522 28.7393 19.9922 28.7393C20.4404 28.7393 20.8057 28.3657 20.8057 27.9258V20.812H27.9194C28.3594 20.812 28.7329 20.4468 28.7329 20.0068C28.7329 19.5586 28.3594 19.1934 27.9194 19.1934H20.8057V12.0796C20.8057 11.6396 20.4404 11.2661 19.9922 11.2661C19.5522 11.2661 19.187 11.6396 19.187 12.0796V19.1934H12.0732C11.6333 19.1934 11.2598 19.5586 11.2598 20.0068C11.2598 20.4468 11.6333 20.812 12.0732 20.812Z" fill="#333537"/>
<path d="M12.0732 20.812H19.187V27.9258C19.187 28.3657 19.5522 28.7393 19.9922 28.7393C20.4404 28.7393 20.8057 28.3657 20.8057 27.9258V20.812H27.9194C28.3594 20.812 28.7329 20.4468 28.7329 20.0068C28.7329 19.5586 28.3594 19.1934 27.9194 19.1934H20.8057V12.0796C20.8057 11.6396 20.4404 11.2661 19.9922 11.2661C19.5522 11.2661 19.187 11.6396 19.187 12.0796V19.1934H12.0732C11.6333 19.1934 11.2598 19.5586 11.2598 20.0068C11.2598 20.4468 11.6333 20.812 12.0732 20.812Z" fill="#333537" fill-opacity="0.8"/>
</svg>
