<svg width="21" height="30" viewBox="0 0 21 30" fill="none" xmlns="http://www.w3.org/2000/svg">
<path d="M18.174 3.29797C17.7242 1.85441 16.2836 0.207394 14.2694 0.0228996C12.1308 -0.17389 10.1555 0.889768 9.26542 3.51979C9.05413 4.14746 8.92032 4.80397 8.86754 5.47198C8.11933 4.37945 6.74326 2.91217 4.75124 2.90878C1.91455 2.90664 0.440793 4.88027 0.123633 6.41485C-0.311434 8.51112 0.43686 10.1123 1.81694 10.1867C3.19847 10.261 4.07203 9.2248 4.90028 8.62329C6.09944 7.75146 8.09028 7.76393 8.6833 9.11311C8.7836 9.47732 8.87679 9.84391 8.95983 10.2116C9.0123 10.7162 8.59163 13.1773 8.42469 13.6429C8.19808 14.2775 7.94843 14.6924 8.22928 14.9985C8.46739 15.2576 8.87778 15.3146 9.24059 15.2754C10.3841 15.1517 10.8779 14.544 11.0033 14.3276C11.155 14.0658 11.6857 11.022 10.5277 8.62329C10.0385 6.83791 11.8058 6.37424 12.3615 6.29801C13.4819 6.14781 15.2442 6.39498 16.3375 6.43122C18.8152 6.51244 18.4998 4.34606 18.174 3.29797Z" fill="#008000"/>
<path d="M3.6675 5.83818C3.77092 5.59197 3.89477 5.35964 4.03567 5.13674C4.1842 4.90175 4.5477 4.63062 4.53124 4.31367C4.5114 3.88763 3.91192 3.99596 3.67579 4.04082C3.52161 4.06877 3.36836 4.10628 3.21911 4.15462C2.94885 4.24021 2.68753 4.35702 2.44416 4.5073C2.02799 4.76481 1.66215 5.11668 1.38281 5.5429C1.17877 5.85473 1.01135 6.21089 0.933976 6.58789C0.750164 7.46415 0.836253 8.26614 1.15918 8.73183C1.33862 8.9909 1.58257 9.1303 1.88476 9.1459C3.14832 9.21362 3.26016 7.66422 3.4541 6.63716C3.50407 6.36937 3.56294 6.08773 3.6675 5.83818ZM10.1677 3.77785C10.1237 4.0611 10.1315 4.3645 10.2822 4.55584C10.391 4.69217 10.6437 4.74209 10.7977 4.68197C11.2526 4.50557 11.5169 3.77674 11.7084 3.33749C11.8568 2.99627 12.0559 2.66405 12.2704 2.3688C12.4047 2.18364 12.5861 1.96924 12.6147 1.72307C12.6668 1.26831 12.066 1.51201 11.888 1.58117C11.1933 1.85593 10.5695 2.55283 10.2937 3.299C10.245 3.42984 10.1956 3.59937 10.1677 3.77785Z" fill="#BDCF46"/>
<path d="M20.6989 20.3476C21.8439 24.3316 19.623 28.5146 15.7382 29.6904C11.8534 30.8663 7.77578 28.5894 6.63082 24.6054C5.39254 20.2965 7.17318 14.0415 8.42184 10.5194C8.58316 10.0644 8.66004 9.37962 9.19066 9.35236C9.6051 9.33106 9.80678 9.15975 10.2079 8.9873C10.728 8.76313 11.248 9.12533 11.739 9.50689C14.6491 11.7685 19.4595 16.0348 20.6989 20.3476Z" fill="#A37B65"/>
<path d="M15.5127 29.0302C12.7519 29.9096 9.97942 28.8605 9.32114 26.6866C8.66287 24.5127 10.3681 22.0373 13.1289 21.1579C15.8904 20.2783 18.6629 21.3274 19.3212 23.5013C19.9795 25.6752 18.2742 28.1506 15.5127 29.0302Z" fill="#75503F" fill-opacity="0.8"/>
<path d="M9.61259 12.7543C9.58883 12.6944 9.50261 12.677 9.45237 12.7063C9.14888 12.8845 9.0484 13.397 8.93366 13.716C8.7809 14.1435 8.64239 14.5731 8.51747 15.0097C8.3939 15.445 8.27373 15.8823 8.17121 16.323C8.08431 16.6977 7.85348 17.2526 7.98587 17.6245C8.04901 17.8028 8.27305 17.9232 8.42513 17.7589C8.7035 17.4581 8.71369 16.9163 8.80466 16.5222C8.90582 16.08 9.00563 15.6378 9.1163 15.1978C9.22696 14.7577 9.3383 14.3183 9.451 13.8789C9.53858 13.537 9.74702 13.0969 9.61259 12.7543Z" fill="white"/>
<path d="M7.97771 18.4299C7.78149 18.4222 7.65657 18.5754 7.63145 18.7592C7.61719 18.863 7.60294 18.9667 7.58868 19.0698C7.55406 19.2049 7.53369 19.3435 7.53097 19.4869C7.52826 19.6666 7.66608 19.8253 7.84396 19.8323C8.03814 19.8392 8.15152 19.6902 8.18071 19.5113C8.22009 19.2696 8.25947 19.0273 8.29885 18.785C8.32804 18.6019 8.14133 18.4361 7.97771 18.4299Z" fill="white"/>
<path d="M10.6607 8.92586C10.7067 9.06357 10.4107 9.57896 9.90616 9.76439C9.40159 9.94982 8.85587 9.68607 8.80994 9.54836C8.76401 9.41065 9.1521 9.2018 9.65667 9.01637C10.1612 8.83094 10.6148 8.78815 10.6607 8.92586Z" fill="#008000"/>
</svg>
